<svg xmlns="http://www.w3.org/2000/svg" viewBox="0 0 88.32 54.84" width="88.32" height="54.84" fill="#FFFFFF">
  <g transform="translate(5.7 5.7) scale(1.3575)">
    <path d="M4 4L12 4L24 14L24 18L12 8L4 8Z"/>
    <path d="M4 24L12 24L24 14L24 18L12 28L4 28Z"/>
    <path d="M28 4L20 4L8 14L8 18L20 8L28 8Z"/>
    <path d="M28 24L20 24L8 14L8 18L20 28L28 28Z"/>
    <rect x="4" y="14" width="24" height="4"/>
  </g>
  <g transform="translate(60.57 -1.74) scale(0.26)">
    <path d="M29.32 38.1Q29.02 38.94 28.15 39.58Q27.29 40.22 25.59 40.24Q25.47 50.93 25.23 59.78Q24.99 68.64 24.12 75.89Q23.25 83.15 21.11 89.02Q18.97 94.89 15.01 99.49Q11.06 104.08 4.67 107.74L3.29 106Q9.82 101.22 13.31 95.08Q16.79 88.94 18.23 80.73Q19.66 72.53 19.93 61.5Q20.2 50.47 20.2 35.75ZM24.62 78.4Q29.31 80.42 32.09 82.78Q34.88 85.15 36.11 87.47Q37.34 89.78 37.33 91.68Q37.33 93.58 36.5 94.74Q35.68 95.9 34.3 96.03Q32.91 96.16 31.36 94.88Q31.12 92.24 29.88 89.34Q28.64 86.45 26.93 83.75Q25.22 81.06 23.46 79.11ZM8.31 21.66 15.12 24.66H31.16L34.17 20.91L41.21 26.46Q40.71 27 39.81 27.42Q38.91 27.84 37.29 28.06V74.01Q37.29 74.33 35.8 75.1Q34.32 75.86 32.35 75.86H31.56V27.62H13.94V75.15Q13.94 75.49 12.66 76.28Q11.39 77.08 9.19 77.08H8.31V24.66ZM82.63 19.96Q86.99 21.39 89.52 23.22Q92.06 25.05 93.18 26.9Q94.3 28.75 94.29 30.34Q94.28 31.92 93.42 32.91Q92.56 33.91 91.27 34.04Q89.98 34.18 88.49 33.07Q87.98 30.03 85.81 26.46Q83.65 22.89 81.49 20.62ZM37.31 97.25Q40.63 96.69 46.49 95.45Q52.36 94.2 59.81 92.47Q67.25 90.73 75.16 88.86L75.52 90.43Q69.9 92.74 61.88 95.85Q53.85 98.95 43.18 102.69Q42.7 104.56 41.09 105.06ZM67.09 63.79Q67.09 63.79 68.15 64.72Q69.2 65.66 70.7 67.08Q72.2 68.5 73.38 69.8Q73 71.4 70.88 71.4H58.88V68.44H63.71ZM51.69 57.03Q51.51 57.96 50.86 58.59Q50.2 59.22 48.58 59.42V98.08Q48.58 98.28 47.33 98.52Q46.08 98.76 44.65 98.76H43.32V56.06ZM64.81 49Q64.71 49.96 64.02 50.6Q63.34 51.24 61.68 51.44V94.49Q61.68 94.69 60.34 94.98Q59.01 95.27 57.52 95.27H56.16V48.02ZM81.77 17.55Q81.67 18.55 80.88 19.31Q80.09 20.07 78.17 20.29Q77.94 31.28 78.11 42.21Q78.28 53.14 79.33 63.11Q80.38 73.08 82.75 81.34Q85.12 89.6 89.25 95.32Q90.18 96.7 90.58 96.65Q90.98 96.6 91.61 94.98Q92.47 93.22 93.49 90.1Q94.52 86.97 95.33 84.11L96.56 84.31L94.92 99.9Q96.56 103.14 96.84 104.77Q97.12 106.39 96.37 107.02Q95.03 108.28 92.96 107.75Q90.9 107.22 88.84 105.52Q86.78 103.82 85.4 101.76Q80.63 94.94 77.78 85.86Q74.92 76.77 73.6 65.82Q72.27 54.87 71.86 42.39Q71.44 29.92 71.44 16.3ZM61.51 22.64Q61.51 22.64 62.87 23.75Q64.22 24.85 66.07 26.39Q67.92 27.93 69.42 29.43Q69.02 31.03 66.88 31.03H44.37L43.57 28.07H57.23ZM88.9 36.38Q88.9 36.38 90.31 37.48Q91.71 38.59 93.64 40.21Q95.56 41.84 97.07 43.34Q96.67 44.94 94.53 44.94H39.68L38.88 41.98H84.54Z"/>
    <path d="M24.96 150.68Q29.97 152.64 32.99 154.9Q36.01 157.16 37.43 159.37Q38.86 161.57 39.03 163.37Q39.21 165.16 38.45 166.29Q37.69 167.43 36.35 167.58Q35.01 167.74 33.44 166.56Q32.85 164.1 31.25 161.33Q29.66 158.56 27.67 155.95Q25.69 153.34 23.8 151.42ZM28.99 116.85Q28.89 117.95 28.14 118.66Q27.39 119.37 25.45 119.67V205.46Q25.45 205.9 24.68 206.51Q23.91 207.11 22.8 207.55Q21.69 208 20.54 208H19.2V115.8ZM24.77 141.02Q22.37 153.75 17.41 165.04Q12.45 176.33 4.46 185.48L2.96 184.17Q6.98 177.91 9.92 170.61Q12.85 163.31 14.88 155.35Q16.91 147.4 18.14 139.42H24.77ZM34.06 133.76Q34.06 133.76 35.41 134.9Q36.75 136.04 38.59 137.66Q40.42 139.27 41.89 140.78Q41.57 142.38 39.35 142.38H4.57L3.77 139.42H29.65ZM63.79 119.56Q63.47 120.32 62.59 120.9Q61.71 121.48 60.01 121.38Q56.23 131.3 50.61 139.53Q44.99 147.76 38.33 153.07L36.92 152.11Q40.35 147.87 43.59 142.23Q46.83 136.58 49.51 129.95Q52.2 123.32 53.92 116.24ZM46.1 167.96 53.49 171.15H78.72L81.98 167.25L89.24 172.87Q88.74 173.49 87.85 173.9Q86.96 174.32 85.5 174.56V205.01Q85.5 205.41 83.9 206.17Q82.3 206.94 80.06 206.94H79.06V174.11H52.31V205.75Q52.31 206.19 50.91 206.95Q49.51 207.72 47.08 207.72H46.1V171.15ZM51.49 132.87Q57.96 143.8 69.03 152.1Q80.11 160.41 96.93 164.86L96.73 165.88Q94.72 166.4 93.3 167.71Q91.88 169.03 91.38 171.34Q80.88 167.37 73.16 161.92Q65.44 156.47 59.85 149.67Q54.27 142.87 50.28 134.84ZM78.89 128.42 83.29 124.36 90.33 130.97Q89.75 131.61 88.77 131.84Q87.79 132.07 85.97 132.19Q79.01 146.49 66.05 157.54Q53.09 168.58 33.04 174.61L32.13 173.01Q43.87 168.45 53.29 161.69Q62.72 154.93 69.47 146.47Q76.22 138.01 79.95 128.42ZM82.84 128.42V131.37H52.24L53.42 128.42ZM81.77 197.92V200.88H49.48V197.92Z"/>
  </g>
  <rect x="4.1" y="4.1" width="46.64" height="46.64" fill="none" stroke="#FFFFFF" stroke-width="3.2"/>
</svg>
